<?xml version='1.0' encoding='UTF-8'?>
<svg width="69mm" height="69mm" version="1.1" viewBox="0 0 69 69" xmlns="http://www.w3.org/2000/svg"><path d="M4,4H5V5H4zM5,4H6V5H5zM6,4H7V5H6zM7,4H8V5H7zM8,4H9V5H8zM9,4H10V5H9zM10,4H11V5H10zM12,4H13V5H12zM19,4H20V5H19zM21,4H22V5H21zM22,4H23V5H22zM23,4H24V5H23zM24,4H25V5H24zM26,4H27V5H26zM32,4H33V5H32zM35,4H36V5H35zM41,4H42V5H41zM46,4H47V5H46zM47,4H48V5H47zM51,4H52V5H51zM53,4H54V5H53zM55,4H56V5H55zM56,4H57V5H56zM58,4H59V5H58zM59,4H60V5H59zM60,4H61V5H60zM61,4H62V5H61zM62,4H63V5H62zM63,4H64V5H63zM64,4H65V5H64zM4,5H5V6H4zM10,5H11V6H10zM12,5H13V6H12zM15,5H16V6H15zM16,5H17V6H16zM17,5H18V6H17zM19,5H20V6H19zM21,5H22V6H21zM22,5H23V6H22zM23,5H24V6H23zM24,5H25V6H24zM25,5H26V6H25zM30,5H31V6H30zM32,5H33V6H32zM36,5H37V6H36zM37,5H38V6H37zM38,5H39V6H38zM39,5H40V6H39zM40,5H41V6H40zM42,5H43V6H42zM43,5H44V6H43zM44,5H45V6H44zM46,5H47V6H46zM48,5H49V6H48zM55,5H56V6H55zM56,5H57V6H56zM58,5H59V6H58zM64,5H65V6H64zM4,6H5V7H4zM6,6H7V7H6zM7,6H8V7H7zM8,6H9V7H8zM10,6H11V7H10zM16,6H17V7H16zM17,6H18V7H17zM18,6H19V7H18zM19,6H20V7H19zM20,6H21V7H20zM22,6H23V7H22zM23,6H24V7H23zM24,6H25V7H24zM28,6H29V7H28zM31,6H32V7H31zM33,6H34V7H33zM37,6H38V7H37zM42,6H43V7H42zM47,6H48V7H47zM53,6H54V7H53zM54,6H55V7H54zM55,6H56V7H55zM56,6H57V7H56zM58,6H59V7H58zM60,6H61V7H60zM61,6H62V7H61zM62,6H63V7H62zM64,6H65V7H64zM4,7H5V8H4zM6,7H7V8H6zM7,7H8V8H7zM8,7H9V8H8zM10,7H11V8H10zM12,7H13V8H12zM13,7H14V8H13zM19,7H20V8H19zM21,7H22V8H21zM22,7H23V8H22zM26,7H27V8H26zM27,7H28V8H27zM29,7H30V8H29zM31,7H32V8H31zM32,7H33V8H32zM38,7H39V8H38zM39,7H40V8H39zM40,7H41V8H40zM41,7H42V8H41zM45,7H46V8H45zM46,7H47V8H46zM47,7H48V8H47zM49,7H50V8H49zM50,7H51V8H50zM51,7H52V8H51zM52,7H53V8H52zM53,7H54V8H53zM54,7H55V8H54zM56,7H57V8H56zM58,7H59V8H58zM60,7H61V8H60zM61,7H62V8H61zM62,7H63V8H62zM64,7H65V8H64zM4,8H5V9H4zM6,8H7V9H6zM7,8H8V9H7zM8,8H9V9H8zM10,8H11V9H10zM13,8H14V9H13zM15,8H16V9H15zM18,8H19V9H18zM19,8H20V9H19zM22,8H23V9H22zM24,8H25V9H24zM26,8H27V9H26zM31,8H32V9H31zM32,8H33V9H32zM33,8H34V9H33zM34,8H35V9H34zM35,8H36V9H35zM36,8H37V9H36zM37,8H38V9H37zM39,8H40V9H39zM42,8H43V9H42zM47,8H48V9H47zM48,8H49V9H48zM49,8H50V9H49zM51,8H52V9H51zM54,8H55V9H54zM55,8H56V9H55zM58,8H59V9H58zM60,8H61V9H60zM61,8H62V9H61zM62,8H63V9H62zM64,8H65V9H64zM4,9H5V10H4zM10,9H11V10H10zM16,9H17V10H16zM17,9H18V10H17zM18,9H19V10H18zM19,9H20V10H19zM23,9H24V10H23zM24,9H25V10H24zM25,9H26V10H25zM26,9H27V10H26zM32,9H33V10H32zM36,9H37V10H36zM38,9H39V10H38zM39,9H40V10H39zM40,9H41V10H40zM42,9H43V10H42zM45,9H46V10H45zM46,9H47V10H46zM52,9H53V10H52zM53,9H54V10H53zM54,9H55V10H54zM58,9H59V10H58zM64,9H65V10H64zM4,10H5V11H4zM5,10H6V11H5zM6,10H7V11H6zM7,10H8V11H7zM8,10H9V11H8zM9,10H10V11H9zM10,10H11V11H10zM12,10H13V11H12zM14,10H15V11H14zM16,10H17V11H16zM18,10H19V11H18zM20,10H21V11H20zM22,10H23V11H22zM24,10H25V11H24zM26,10H27V11H26zM28,10H29V11H28zM30,10H31V11H30zM32,10H33V11H32zM34,10H35V11H34zM36,10H37V11H36zM38,10H39V11H38zM40,10H41V11H40zM42,10H43V11H42zM44,10H45V11H44zM46,10H47V11H46zM48,10H49V11H48zM50,10H51V11H50zM52,10H53V11H52zM54,10H55V11H54zM56,10H57V11H56zM58,10H59V11H58zM59,10H60V11H59zM60,10H61V11H60zM61,10H62V11H61zM62,10H63V11H62zM63,10H64V11H63zM64,10H65V11H64zM12,11H13V12H12zM17,11H18V12H17zM18,11H19V12H18zM19,11H20V12H19zM20,11H21V12H20zM24,11H25V12H24zM25,11H26V12H25zM26,11H27V12H26zM29,11H30V12H29zM32,11H33V12H32zM36,11H37V12H36zM37,11H38V12H37zM38,11H39V12H38zM39,11H40V12H39zM40,11H41V12H40zM42,11H43V12H42zM44,11H45V12H44zM45,11H46V12H45zM47,11H48V12H47zM49,11H50V12H49zM50,11H51V12H50zM51,11H52V12H51zM52,11H53V12H52zM53,11H54V12H53zM54,11H55V12H54zM4,12H5V13H4zM6,12H7V13H6zM7,12H8V13H7zM9,12H10V13H9zM10,12H11V13H10zM11,12H12V13H11zM13,12H14V13H13zM15,12H16V13H15zM17,12H18V13H17zM19,12H20V13H19zM20,12H21V13H20zM22,12H23V13H22zM23,12H24V13H23zM25,12H26V13H25zM26,12H27V13H26zM29,12H30V13H29zM31,12H32V13H31zM32,12H33V13H32zM33,12H34V13H33zM34,12H35V13H34zM35,12H36V13H35zM36,12H37V13H36zM37,12H38V13H37zM39,12H40V13H39zM43,12H44V13H43zM44,12H45V13H44zM45,12H46V13H45zM47,12H48V13H47zM49,12H50V13H49zM50,12H51V13H50zM51,12H52V13H51zM54,12H55V13H54zM58,12H59V13H58zM61,12H62V13H61zM63,12H64V13H63zM64,12H65V13H64zM5,13H6V14H5zM6,13H7V14H6zM7,13H8V14H7zM9,13H10V14H9zM11,13H12V14H11zM13,13H14V14H13zM14,13H15V14H14zM18,13H19V14H18zM19,13H20V14H19zM20,13H21V14H20zM21,13H22V14H21zM23,13H24V14H23zM25,13H26V14H25zM26,13H27V14H26zM27,13H28V14H27zM29,13H30V14H29zM30,13H31V14H30zM34,13H35V14H34zM35,13H36V14H35zM36,13H37V14H36zM39,13H40V14H39zM40,13H41V14H40zM41,13H42V14H41zM44,13H45V14H44zM46,13H47V14H46zM47,13H48V14H47zM51,13H52V14H51zM53,13H54V14H53zM57,13H58V14H57zM58,13H59V14H58zM60,13H61V14H60zM61,13H62V14H61zM62,13H63V14H62zM5,14H6V15H5zM8,14H9V15H8zM10,14H11V15H10zM12,14H13V15H12zM13,14H14V15H13zM15,14H16V15H15zM17,14H18V15H17zM19,14H20V15H19zM20,14H21V15H20zM22,14H23V15H22zM23,14H24V15H23zM25,14H26V15H25zM26,14H27V15H26zM29,14H30V15H29zM32,14H33V15H32zM33,14H34V15H33zM34,14H35V15H34zM36,14H37V15H36zM37,14H38V15H37zM38,14H39V15H38zM39,14H40V15H39zM40,14H41V15H40zM43,14H44V15H43zM44,14H45V15H44zM45,14H46V15H45zM46,14H47V15H46zM47,14H48V15H47zM50,14H51V15H50zM51,14H52V15H51zM53,14H54V15H53zM56,14H57V15H56zM57,14H58V15H57zM58,14H59V15H58zM59,14H60V15H59zM61,14H62V15H61zM62,14H63V15H62zM6,15H7V16H6zM7,15H8V16H7zM8,15H9V16H8zM9,15H10V16H9zM11,15H12V16H11zM12,15H13V16H12zM13,15H14V16H13zM15,15H16V16H15zM16,15H17V16H16zM18,15H19V16H18zM23,15H24V16H23zM24,15H25V16H24zM26,15H27V16H26zM27,15H28V16H27zM29,15H30V16H29zM31,15H32V16H31zM32,15H33V16H32zM35,15H36V16H35zM36,15H37V16H36zM37,15H38V16H37zM38,15H39V16H38zM40,15H41V16H40zM41,15H42V16H41zM47,15H48V16H47zM48,15H49V16H48zM49,15H50V16H49zM52,15H53V16H52zM54,15H55V16H54zM56,15H57V16H56zM57,15H58V16H57zM60,15H61V16H60zM61,15H62V16H61zM62,15H63V16H62zM63,15H64V16H63zM64,15H65V16H64zM4,16H5V17H4zM6,16H7V17H6zM9,16H10V17H9zM10,16H11V17H10zM11,16H12V17H11zM12,16H13V17H12zM13,16H14V17H13zM16,16H17V17H16zM18,16H19V17H18zM19,16H20V17H19zM24,16H25V17H24zM26,16H27V17H26zM28,16H29V17H28zM29,16H30V17H29zM32,16H33V17H32zM33,16H34V17H33zM35,16H36V17H35zM38,16H39V17H38zM40,16H41V17H40zM41,16H42V17H41zM42,16H43V17H42zM45,16H46V17H45zM46,16H47V17H46zM47,16H48V17H47zM50,16H51V17H50zM51,16H52V17H51zM52,16H53V17H52zM53,16H54V17H53zM54,16H55V17H54zM55,16H56V17H55zM58,16H59V17H58zM61,16H62V17H61zM63,16H64V17H63zM64,16H65V17H64zM4,17H5V18H4zM6,17H7V18H6zM7,17H8V18H7zM8,17H9V18H8zM9,17H10V18H9zM11,17H12V18H11zM12,17H13V18H12zM13,17H14V18H13zM14,17H15V18H14zM15,17H16V18H15zM16,17H17V18H16zM17,17H18V18H17zM18,17H19V18H18zM20,17H21V18H20zM21,17H22V18H21zM22,17H23V18H22zM27,17H28V18H27zM33,17H34V18H33zM34,17H35V18H34zM37,17H38V18H37zM41,17H42V18H41zM42,17H43V18H42zM45,17H46V18H45zM47,17H48V18H47zM48,17H49V18H48zM49,17H50V18H49zM51,17H52V18H51zM53,17H54V18H53zM54,17H55V18H54zM55,17H56V18H55zM57,17H58V18H57zM59,17H60V18H59zM63,17H64V18H63zM64,17H65V18H64zM4,18H5V19H4zM6,18H7V19H6zM8,18H9V19H8zM9,18H10V19H9zM10,18H11V19H10zM11,18H12V19H11zM12,18H13V19H12zM13,18H14V19H13zM14,18H15V19H14zM15,18H16V19H15zM16,18H17V19H16zM18,18H19V19H18zM20,18H21V19H20zM21,18H22V19H21zM25,18H26V19H25zM27,18H28V19H27zM28,18H29V19H28zM31,18H32V19H31zM33,18H34V19H33zM39,18H40V19H39zM41,18H42V19H41zM42,18H43V19H42zM44,18H45V19H44zM46,18H47V19H46zM48,18H49V19H48zM49,18H50V19H49zM51,18H52V19H51zM52,18H53V19H52zM53,18H54V19H53zM54,18H55V19H54zM55,18H56V19H55zM56,18H57V19H56zM57,18H58V19H57zM58,18H59V19H58zM59,18H60V19H59zM61,18H62V19H61zM62,18H63V19H62zM63,18H64V19H63zM5,19H6V20H5zM6,19H7V20H6zM9,19H10V20H9zM11,19H12V20H11zM16,19H17V20H16zM17,19H18V20H17zM19,19H20V20H19zM20,19H21V20H20zM24,19H25V20H24zM25,19H26V20H25zM26,19H27V20H26zM27,19H28V20H27zM29,19H30V20H29zM31,19H32V20H31zM33,19H34V20H33zM34,19H35V20H34zM36,19H37V20H36zM37,19H38V20H37zM39,19H40V20H39zM40,19H41V20H40zM41,19H42V20H41zM42,19H43V20H42zM43,19H44V20H43zM44,19H45V20H44zM45,19H46V20H45zM46,19H47V20H46zM48,19H49V20H48zM51,19H52V20H51zM55,19H56V20H55zM57,19H58V20H57zM58,19H59V20H58zM60,19H61V20H60zM63,19H64V20H63zM4,20H5V21H4zM8,20H9V21H8zM9,20H10V21H9zM10,20H11V21H10zM13,20H14V21H13zM17,20H18V21H17zM21,20H22V21H21zM23,20H24V21H23zM25,20H26V21H25zM26,20H27V21H26zM27,20H28V21H27zM28,20H29V21H28zM30,20H31V21H30zM33,20H34V21H33zM34,20H35V21H34zM35,20H36V21H35zM36,20H37V21H36zM37,20H38V21H37zM38,20H39V21H38zM41,20H42V21H41zM42,20H43V21H42zM45,20H46V21H45zM46,20H47V21H46zM47,20H48V21H47zM48,20H49V21H48zM53,20H54V21H53zM54,20H55V21H54zM55,20H56V21H55zM56,20H57V21H56zM58,20H59V21H58zM59,20H60V21H59zM60,20H61V21H60zM61,20H62V21H61zM63,20H64V21H63zM64,20H65V21H64zM7,21H8V22H7zM9,21H10V22H9zM12,21H13V22H12zM16,21H17V22H16zM18,21H19V22H18zM20,21H21V22H20zM22,21H23V22H22zM23,21H24V22H23zM25,21H26V22H25zM29,21H30V22H29zM30,21H31V22H30zM32,21H33V22H32zM33,21H34V22H33zM36,21H37V22H36zM37,21H38V22H37zM38,21H39V22H38zM43,21H44V22H43zM44,21H45V22H44zM45,21H46V22H45zM49,21H50V22H49zM50,21H51V22H50zM51,21H52V22H51zM52,21H53V22H52zM56,21H57V22H56zM57,21H58V22H57zM64,21H65V22H64zM6,22H7V23H6zM8,22H9V23H8zM10,22H11V23H10zM11,22H12V23H11zM13,22H14V23H13zM17,22H18V23H17zM19,22H20V23H19zM22,22H23V23H22zM23,22H24V23H23zM28,22H29V23H28zM31,22H32V23H31zM32,22H33V23H32zM37,22H38V23H37zM38,22H39V23H38zM39,22H40V23H39zM40,22H41V23H40zM46,22H47V23H46zM48,22H49V23H48zM51,22H52V23H51zM55,22H56V23H55zM57,22H58V23H57zM58,22H59V23H58zM61,22H62V23H61zM63,22H64V23H63zM64,22H65V23H64zM4,23H5V24H4zM5,23H6V24H5zM6,23H7V24H6zM7,23H8V24H7zM9,23H10V24H9zM11,23H12V24H11zM12,23H13V24H12zM13,23H14V24H13zM14,23H15V24H14zM18,23H19V24H18zM19,23H20V24H19zM22,23H23V24H22zM24,23H25V24H24zM25,23H26V24H25zM26,23H27V24H26zM27,23H28V24H27zM29,23H30V24H29zM30,23H31V24H30zM31,23H32V24H31zM35,23H36V24H35zM36,23H37V24H36zM37,23H38V24H37zM39,23H40V24H39zM40,23H41V24H40zM41,23H42V24H41zM42,23H43V24H42zM44,23H45V24H44zM48,23H49V24H48zM52,23H53V24H52zM55,23H56V24H55zM56,23H57V24H56zM57,23H58V24H57zM58,23H59V24H58zM61,23H62V24H61zM64,23H65V24H64zM4,24H5V25H4zM5,24H6V25H5zM6,24H7V25H6zM8,24H9V25H8zM10,24H11V25H10zM13,24H14V25H13zM14,24H15V25H14zM15,24H16V25H15zM16,24H17V25H16zM18,24H19V25H18zM20,24H21V25H20zM21,24H22V25H21zM23,24H24V25H23zM25,24H26V25H25zM27,24H28V25H27zM28,24H29V25H28zM29,24H30V25H29zM33,24H34V25H33zM34,24H35V25H34zM36,24H37V25H36zM38,24H39V25H38zM39,24H40V25H39zM44,24H45V25H44zM45,24H46V25H45zM49,24H50V25H49zM50,24H51V25H50zM51,24H52V25H51zM53,24H54V25H53zM55,24H56V25H55zM58,24H59V25H58zM61,24H62V25H61zM63,24H64V25H63zM64,24H65V25H64zM5,25H6V26H5zM9,25H10V26H9zM11,25H12V26H11zM14,25H15V26H14zM15,25H16V26H15zM18,25H19V26H18zM23,25H24V26H23zM24,25H25V26H24zM26,25H27V26H26zM27,25H28V26H27zM28,25H29V26H28zM29,25H30V26H29zM32,25H33V26H32zM33,25H34V26H33zM36,25H37V26H36zM39,25H40V26H39zM40,25H41V26H40zM43,25H44V26H43zM44,25H45V26H44zM45,25H46V26H45zM46,25H47V26H46zM47,25H48V26H47zM51,25H52V26H51zM52,25H53V26H52zM53,25H54V26H53zM57,25H58V26H57zM58,25H59V26H58zM59,25H60V26H59zM60,25H61V26H60zM61,25H62V26H61zM62,25H63V26H62zM63,25H64V26H63zM64,25H65V26H64zM5,26H6V27H5zM10,26H11V27H10zM13,26H14V27H13zM14,26H15V27H14zM17,26H18V27H17zM19,26H20V27H19zM20,26H21V27H20zM21,26H22V27H21zM27,26H28V27H27zM28,26H29V27H28zM29,26H30V27H29zM31,26H32V27H31zM33,26H34V27H33zM34,26H35V27H34zM35,26H36V27H35zM36,26H37V27H36zM40,26H41V27H40zM41,26H42V27H41zM43,26H44V27H43zM50,26H51V27H50zM51,26H52V27H51zM52,26H53V27H52zM54,26H55V27H54zM55,26H56V27H55zM56,26H57V27H56zM57,26H58V27H57zM58,26H59V27H58zM59,26H60V27H59zM60,26H61V27H60zM61,26H62V27H61zM5,27H6V28H5zM6,27H7V28H6zM9,27H10V28H9zM11,27H12V28H11zM12,27H13V28H12zM13,27H14V28H13zM14,27H15V28H14zM16,27H17V28H16zM18,27H19V28H18zM21,27H22V28H21zM23,27H24V28H23zM28,27H29V28H28zM30,27H31V28H30zM32,27H33V28H32zM33,27H34V28H33zM34,27H35V28H34zM38,27H39V28H38zM41,27H42V28H41zM43,27H44V28H43zM45,27H46V28H45zM49,27H50V28H49zM55,27H56V28H55zM56,27H57V28H56zM58,27H59V28H58zM59,27H60V28H59zM60,27H61V28H60zM61,27H62V28H61zM62,27H63V28H62zM63,27H64V28H63zM5,28H6V29H5zM6,28H7V29H6zM8,28H9V29H8zM9,28H10V29H9zM10,28H11V29H10zM11,28H12V29H11zM12,28H13V29H12zM13,28H14V29H13zM15,28H16V29H15zM17,28H18V29H17zM18,28H19V29H18zM20,28H21V29H20zM21,28H22V29H21zM23,28H24V29H23zM24,28H25V29H24zM25,28H26V29H25zM26,28H27V29H26zM27,28H28V29H27zM28,28H29V29H28zM29,28H30V29H29zM34,28H35V29H34zM35,28H36V29H35zM37,28H38V29H37zM38,28H39V29H38zM39,28H40V29H39zM40,28H41V29H40zM47,28H48V29H47zM51,28H52V29H51zM52,28H53V29H52zM53,28H54V29H53zM56,28H57V29H56zM59,28H60V29H59zM61,28H62V29H61zM62,28H63V29H62zM63,28H64V29H63zM4,29H5V30H4zM7,29H8V30H7zM12,29H13V30H12zM13,29H14V30H13zM15,29H16V30H15zM16,29H17V30H16zM17,29H18V30H17zM19,29H20V30H19zM24,29H25V30H24zM25,29H26V30H25zM26,29H27V30H26zM27,29H28V30H27zM34,29H35V30H34zM36,29H37V30H36zM37,29H38V30H37zM41,29H42V30H41zM42,29H43V30H42zM43,29H44V30H43zM49,29H50V30H49zM52,29H53V30H52zM53,29H54V30H53zM54,29H55V30H54zM57,29H58V30H57zM59,29H60V30H59zM60,29H61V30H60zM63,29H64V30H63zM6,30H7V31H6zM7,30H8V31H7zM8,30H9V31H8zM10,30H11V31H10zM12,30H13V31H12zM13,30H14V31H13zM17,30H18V31H17zM18,30H19V31H18zM19,30H20V31H19zM20,30H21V31H20zM21,30H22V31H21zM24,30H25V31H24zM27,30H28V31H27zM29,30H30V31H29zM31,30H32V31H31zM32,30H33V31H32zM36,30H37V31H36zM37,30H38V31H37zM39,30H40V31H39zM48,30H49V31H48zM49,30H50V31H49zM50,30H51V31H50zM53,30H54V31H53zM54,30H55V31H54zM56,30H57V31H56zM58,30H59V31H58zM59,30H60V31H59zM60,30H61V31H60zM63,30H64V31H63zM5,31H6V32H5zM8,31H9V32H8zM9,31H10V32H9zM11,31H12V32H11zM13,31H14V32H13zM14,31H15V32H14zM15,31H16V32H15zM17,31H18V32H17zM18,31H19V32H18zM20,31H21V32H20zM23,31H24V32H23zM25,31H26V32H25zM28,31H29V32H28zM30,31H31V32H30zM33,31H34V32H33zM34,31H35V32H34zM36,31H37V32H36zM41,31H42V32H41zM42,31H43V32H42zM45,31H46V32H45zM47,31H48V32H47zM48,31H49V32H48zM49,31H50V32H49zM51,31H52V32H51zM53,31H54V32H53zM55,31H56V32H55zM60,31H61V32H60zM63,31H64V32H63zM5,32H6V33H5zM6,32H7V33H6zM8,32H9V33H8zM9,32H10V33H9zM10,32H11V33H10zM11,32H12V33H11zM12,32H13V33H12zM16,32H17V33H16zM22,32H23V33H22zM24,32H25V33H24zM25,32H26V33H25zM27,32H28V33H27zM28,32H29V33H28zM30,32H31V33H30zM32,32H33V33H32zM33,32H34V33H33zM34,32H35V33H34zM35,32H36V33H35zM36,32H37V33H36zM37,32H38V33H37zM42,32H43V33H42zM43,32H44V33H43zM45,32H46V33H45zM46,32H47V33H46zM48,32H49V33H48zM49,32H50V33H49zM53,32H54V33H53zM56,32H57V33H56zM57,32H58V33H57zM58,32H59V33H58zM59,32H60V33H59zM60,32H61V33H60zM61,32H62V33H61zM62,32H63V33H62zM6,33H7V34H6zM8,33H9V34H8zM12,33H13V34H12zM15,33H16V34H15zM16,33H17V34H16zM17,33H18V34H17zM20,33H21V34H20zM21,33H22V34H21zM22,33H23V34H22zM23,33H24V34H23zM24,33H25V34H24zM25,33H26V34H25zM26,33H27V34H26zM27,33H28V34H27zM30,33H31V34H30zM32,33H33V34H32zM36,33H37V34H36zM37,33H38V34H37zM38,33H39V34H38zM39,33H40V34H39zM44,33H45V34H44zM45,33H46V34H45zM49,33H50V34H49zM50,33H51V34H50zM51,33H52V34H51zM52,33H53V34H52zM53,33H54V34H53zM56,33H57V34H56zM60,33H61V34H60zM62,33H63V34H62zM64,33H65V34H64zM5,34H6V35H5zM6,34H7V35H6zM7,34H8V35H7zM8,34H9V35H8zM10,34H11V35H10zM12,34H13V35H12zM13,34H14V35H13zM15,34H16V35H15zM18,34H19V35H18zM19,34H20V35H19zM20,34H21V35H20zM23,34H24V35H23zM24,34H25V35H24zM25,34H26V35H25zM30,34H31V35H30zM31,34H32V35H31zM32,34H33V35H32zM34,34H35V35H34zM36,34H37V35H36zM38,34H39V35H38zM40,34H41V35H40zM41,34H42V35H41zM42,34H43V35H42zM47,34H48V35H47zM49,34H50V35H49zM50,34H51V35H50zM51,34H52V35H51zM54,34H55V35H54zM56,34H57V35H56zM58,34H59V35H58zM60,34H61V35H60zM62,34H63V35H62zM63,34H64V35H63zM64,34H65V35H64zM7,35H8V36H7zM8,35H9V36H8zM12,35H13V36H12zM13,35H14V36H13zM16,35H17V36H16zM17,35H18V36H17zM18,35H19V36H18zM19,35H20V36H19zM23,35H24V36H23zM24,35H25V36H24zM29,35H30V36H29zM30,35H31V36H30zM32,35H33V36H32zM36,35H37V36H36zM37,35H38V36H37zM38,35H39V36H38zM40,35H41V36H40zM42,35H43V36H42zM43,35H44V36H43zM44,35H45V36H44zM49,35H50V36H49zM51,35H52V36H51zM52,35H53V36H52zM53,35H54V36H53zM54,35H55V36H54zM56,35H57V36H56zM60,35H61V36H60zM61,35H62V36H61zM63,35H64V36H63zM64,35H65V36H64zM4,36H5V37H4zM8,36H9V37H8zM9,36H10V37H9zM10,36H11V37H10zM11,36H12V37H11zM12,36H13V37H12zM19,36H20V37H19zM20,36H21V37H20zM21,36H22V37H21zM22,36H23V37H22zM26,36H27V37H26zM28,36H29V37H28zM32,36H33V37H32zM33,36H34V37H33zM34,36H35V37H34zM35,36H36V37H35zM36,36H37V37H36zM39,36H40V37H39zM43,36H44V37H43zM44,36H45V37H44zM46,36H47V37H46zM49,36H50V37H49zM50,36H51V37H50zM51,36H52V37H51zM54,36H55V37H54zM56,36H57V37H56zM57,36H58V37H57zM58,36H59V37H58zM59,36H60V37H59zM60,36H61V37H60zM62,36H63V37H62zM63,36H64V37H63zM6,37H7V38H6zM7,37H8V38H7zM8,37H9V38H8zM12,37H13V38H12zM13,37H14V38H13zM14,37H15V38H14zM17,37H18V38H17zM19,37H20V38H19zM24,37H25V38H24zM25,37H26V38H25zM27,37H28V38H27zM28,37H29V38H28zM30,37H31V38H30zM32,37H33V38H32zM33,37H34V38H33zM35,37H36V38H35zM36,37H37V38H36zM40,37H41V38H40zM41,37H42V38H41zM44,37H45V38H44zM45,37H46V38H45zM46,37H47V38H46zM47,37H48V38H47zM51,37H52V38H51zM52,37H53V38H52zM53,37H54V38H53zM56,37H57V38H56zM58,37H59V38H58zM62,37H63V38H62zM5,38H6V39H5zM7,38H8V39H7zM8,38H9V39H8zM10,38H11V39H10zM13,38H14V39H13zM18,38H19V39H18zM19,38H20V39H19zM21,38H22V39H21zM24,38H25V39H24zM28,38H29V39H28zM29,38H30V39H29zM32,38H33V39H32zM33,38H34V39H33zM36,38H37V39H36zM38,38H39V39H38zM40,38H41V39H40zM43,38H44V39H43zM44,38H45V39H44zM45,38H46V39H45zM46,38H47V39H46zM47,38H48V39H47zM48,38H49V39H48zM49,38H50V39H49zM50,38H51V39H50zM51,38H52V39H51zM52,38H53V39H52zM55,38H56V39H55zM59,38H60V39H59zM61,38H62V39H61zM62,38H63V39H62zM5,39H6V40H5zM7,39H8V40H7zM11,39H12V40H11zM14,39H15V40H14zM15,39H16V40H15zM16,39H17V40H16zM17,39H18V40H17zM18,39H19V40H18zM20,39H21V40H20zM21,39H22V40H21zM22,39H23V40H22zM24,39H25V40H24zM25,39H26V40H25zM31,39H32V40H31zM38,39H39V40H38zM42,39H43V40H42zM44,39H45V40H44zM48,39H49V40H48zM50,39H51V40H50zM52,39H53V40H52zM53,39H54V40H53zM57,39H58V40H57zM58,39H59V40H58zM59,39H60V40H59zM61,39H62V40H61zM62,39H63V40H62zM7,40H8V41H7zM10,40H11V41H10zM11,40H12V41H11zM13,40H14V41H13zM14,40H15V41H14zM17,40H18V41H17zM20,40H21V41H20zM24,40H25V41H24zM25,40H26V41H25zM27,40H28V41H27zM29,40H30V41H29zM31,40H32V41H31zM32,40H33V41H32zM34,40H35V41H34zM35,40H36V41H35zM36,40H37V41H36zM37,40H38V41H37zM38,40H39V41H38zM39,40H40V41H39zM40,40H41V41H40zM41,40H42V41H41zM42,40H43V41H42zM45,40H46V41H45zM50,40H51V41H50zM51,40H52V41H51zM52,40H53V41H52zM53,40H54V41H53zM55,40H56V41H55zM56,40H57V41H56zM57,40H58V41H57zM59,40H60V41H59zM60,40H61V41H60zM61,40H62V41H61zM62,40H63V41H62zM63,40H64V41H63zM64,40H65V41H64zM4,41H5V42H4zM5,41H6V42H5zM6,41H7V42H6zM11,41H12V42H11zM12,41H13V42H12zM13,41H14V42H13zM14,41H15V42H14zM15,41H16V42H15zM16,41H17V42H16zM17,41H18V42H17zM19,41H20V42H19zM22,41H23V42H22zM24,41H25V42H24zM26,41H27V42H26zM27,41H28V42H27zM29,41H30V42H29zM31,41H32V42H31zM34,41H35V42H34zM35,41H36V42H35zM36,41H37V42H36zM37,41H38V42H37zM39,41H40V42H39zM40,41H41V42H40zM42,41H43V42H42zM43,41H44V42H43zM44,41H45V42H44zM45,41H46V42H45zM49,41H50V42H49zM51,41H52V42H51zM53,41H54V42H53zM54,41H55V42H54zM59,41H60V42H59zM60,41H61V42H60zM61,41H62V42H61zM63,41H64V42H63zM64,41H65V42H64zM4,42H5V43H4zM7,42H8V43H7zM8,42H9V43H8zM9,42H10V43H9zM10,42H11V43H10zM12,42H13V43H12zM13,42H14V43H13zM14,42H15V43H14zM16,42H17V43H16zM18,42H19V43H18zM22,42H23V43H22zM24,42H25V43H24zM25,42H26V43H25zM28,42H29V43H28zM30,42H31V43H30zM32,42H33V43H32zM34,42H35V43H34zM36,42H37V43H36zM38,42H39V43H38zM39,42H40V43H39zM42,42H43V43H42zM44,42H45V43H44zM46,42H47V43H46zM47,42H48V43H47zM48,42H49V43H48zM50,42H51V43H50zM51,42H52V43H51zM53,42H54V43H53zM56,42H57V43H56zM59,42H60V43H59zM62,42H63V43H62zM63,42H64V43H63zM64,42H65V43H64zM9,43H10V44H9zM12,43H13V44H12zM13,43H14V44H13zM19,43H20V44H19zM20,43H21V44H20zM21,43H22V44H21zM23,43H24V44H23zM24,43H25V44H24zM25,43H26V44H25zM28,43H29V44H28zM30,43H31V44H30zM31,43H32V44H31zM34,43H35V44H34zM37,43H38V44H37zM46,43H47V44H46zM47,43H48V44H47zM49,43H50V44H49zM50,43H51V44H50zM56,43H57V44H56zM57,43H58V44H57zM64,43H65V44H64zM4,44H5V45H4zM5,44H6V45H5zM6,44H7V45H6zM8,44H9V45H8zM10,44H11V45H10zM11,44H12V45H11zM13,44H14V45H13zM14,44H15V45H14zM16,44H17V45H16zM17,44H18V45H17zM19,44H20V45H19zM22,44H23V45H22zM27,44H28V45H27zM29,44H30V45H29zM31,44H32V45H31zM33,44H34V45H33zM36,44H37V45H36zM37,44H38V45H37zM39,44H40V45H39zM43,44H44V45H43zM45,44H46V45H45zM47,44H48V45H47zM48,44H49V45H48zM49,44H50V45H49zM53,44H54V45H53zM54,44H55V45H54zM56,44H57V45H56zM58,44H59V45H58zM61,44H62V45H61zM62,44H63V45H62zM63,44H64V45H63zM9,45H10V46H9zM12,45H13V46H12zM13,45H14V46H13zM18,45H19V46H18zM20,45H21V46H20zM21,45H22V46H21zM24,45H25V46H24zM25,45H26V46H25zM27,45H28V46H27zM28,45H29V46H28zM29,45H30V46H29zM31,45H32V46H31zM34,45H35V46H34zM36,45H37V46H36zM37,45H38V46H37zM38,45H39V46H38zM40,45H41V46H40zM43,45H44V46H43zM45,45H46V46H45zM47,45H48V46H47zM49,45H50V46H49zM50,45H51V46H50zM51,45H52V46H51zM57,45H58V46H57zM58,45H59V46H58zM61,45H62V46H61zM64,45H65V46H64zM5,46H6V47H5zM7,46H8V47H7zM8,46H9V47H8zM10,46H11V47H10zM13,46H14V47H13zM15,46H16V47H15zM16,46H17V47H16zM17,46H18V47H17zM18,46H19V47H18zM19,46H20V47H19zM20,46H21V47H20zM24,46H25V47H24zM29,46H30V47H29zM30,46H31V47H30zM31,46H32V47H31zM32,46H33V47H32zM34,46H35V47H34zM35,46H36V47H35zM36,46H37V47H36zM37,46H38V47H37zM40,46H41V47H40zM41,46H42V47H41zM42,46H43V47H42zM43,46H44V47H43zM45,46H46V47H45zM51,46H52V47H51zM52,46H53V47H52zM56,46H57V47H56zM57,46H58V47H57zM58,46H59V47H58zM60,46H61V47H60zM64,46H65V47H64zM8,47H9V48H8zM12,47H13V48H12zM14,47H15V48H14zM17,47H18V48H17zM18,47H19V48H18zM20,47H21V48H20zM22,47H23V48H22zM23,47H24V48H23zM24,47H25V48H24zM25,47H26V48H25zM28,47H29V48H28zM32,47H33V48H32zM33,47H34V48H33zM34,47H35V48H34zM36,47H37V48H36zM37,47H38V48H37zM42,47H43V48H42zM43,47H44V48H43zM44,47H45V48H44zM45,47H46V48H45zM49,47H50V48H49zM54,47H55V48H54zM55,47H56V48H55zM56,47H57V48H56zM57,47H58V48H57zM58,47H59V48H58zM59,47H60V48H59zM60,47H61V48H60zM61,47H62V48H61zM63,47H64V48H63zM4,48H5V49H4zM5,48H6V49H5zM6,48H7V49H6zM9,48H10V49H9zM10,48H11V49H10zM11,48H12V49H11zM13,48H14V49H13zM16,48H17V49H16zM17,48H18V49H17zM20,48H21V49H20zM22,48H23V49H22zM23,48H24V49H23zM27,48H28V49H27zM28,48H29V49H28zM31,48H32V49H31zM32,48H33V49H32zM33,48H34V49H33zM35,48H36V49H35zM37,48H38V49H37zM39,48H40V49H39zM44,48H45V49H44zM46,48H47V49H46zM51,48H52V49H51zM53,48H54V49H53zM54,48H55V49H54zM57,48H58V49H57zM60,48H61V49H60zM61,48H62V49H61zM64,48H65V49H64zM4,49H5V50H4zM5,49H6V50H5zM7,49H8V50H7zM13,49H14V50H13zM17,49H18V50H17zM18,49H19V50H18zM19,49H20V50H19zM21,49H22V50H21zM22,49H23V50H22zM23,49H24V50H23zM24,49H25V50H24zM25,49H26V50H25zM27,49H28V50H27zM28,49H29V50H28zM29,49H30V50H29zM30,49H31V50H30zM31,49H32V50H31zM32,49H33V50H32zM34,49H35V50H34zM35,49H36V50H35zM40,49H41V50H40zM41,49H42V50H41zM45,49H46V50H45zM46,49H47V50H46zM47,49H48V50H47zM48,49H49V50H48zM49,49H50V50H49zM52,49H53V50H52zM53,49H54V50H53zM56,49H57V50H56zM58,49H59V50H58zM59,49H60V50H59zM61,49H62V50H61zM63,49H64V50H63zM7,50H8V51H7zM8,50H9V51H8zM9,50H10V51H9zM10,50H11V51H10zM11,50H12V51H11zM14,50H15V51H14zM16,50H17V51H16zM17,50H18V51H17zM21,50H22V51H21zM22,50H23V51H22zM25,50H26V51H25zM29,50H30V51H29zM30,50H31V51H30zM31,50H32V51H31zM33,50H34V51H33zM39,50H40V51H39zM40,50H41V51H40zM42,50H43V51H42zM43,50H44V51H43zM44,50H45V51H44zM45,50H46V51H45zM46,50H47V51H46zM47,50H48V51H47zM48,50H49V51H48zM50,50H51V51H50zM53,50H54V51H53zM55,50H56V51H55zM56,50H57V51H56zM62,50H63V51H62zM5,51H6V52H5zM6,51H7V52H6zM9,51H10V52H9zM11,51H12V52H11zM12,51H13V52H12zM14,51H15V52H14zM15,51H16V52H15zM16,51H17V52H16zM18,51H19V52H18zM20,51H21V52H20zM21,51H22V52H21zM22,51H23V52H22zM27,51H28V52H27zM28,51H29V52H28zM29,51H30V52H29zM30,51H31V52H30zM31,51H32V52H31zM33,51H34V52H33zM38,51H39V52H38zM40,51H41V52H40zM45,51H46V52H45zM47,51H48V52H47zM48,51H49V52H48zM50,51H51V52H50zM51,51H52V52H51zM54,51H55V52H54zM55,51H56V52H55zM58,51H59V52H58zM59,51H60V52H59zM60,51H61V52H60zM61,51H62V52H61zM62,51H63V52H62zM64,51H65V52H64zM4,52H5V53H4zM6,52H7V53H6zM8,52H9V53H8zM9,52H10V53H9zM10,52H11V53H10zM11,52H12V53H11zM13,52H14V53H13zM15,52H16V53H15zM16,52H17V53H16zM17,52H18V53H17zM23,52H24V53H23zM24,52H25V53H24zM25,52H26V53H25zM28,52H29V53H28zM32,52H33V53H32zM34,52H35V53H34zM37,52H38V53H37zM38,52H39V53H38zM39,52H40V53H39zM40,52H41V53H40zM42,52H43V53H42zM47,52H48V53H47zM51,52H52V53H51zM52,52H53V53H52zM54,52H55V53H54zM55,52H56V53H55zM56,52H57V53H56zM57,52H58V53H57zM60,52H61V53H60zM61,52H62V53H61zM62,52H63V53H62zM4,53H5V54H4zM7,53H8V54H7zM9,53H10V54H9zM13,53H14V54H13zM14,53H15V54H14zM20,53H21V54H20zM24,53H25V54H24zM29,53H30V54H29zM32,53H33V54H32zM37,53H38V54H37zM39,53H40V54H39zM41,53H42V54H41zM42,53H43V54H42zM43,53H44V54H43zM47,53H48V54H47zM49,53H50V54H49zM51,53H52V54H51zM53,53H54V54H53zM54,53H55V54H54zM58,53H59V54H58zM59,53H60V54H59zM60,53H61V54H60zM63,53H64V54H63zM64,53H65V54H64zM6,54H7V55H6zM7,54H8V55H7zM8,54H9V55H8zM9,54H10V55H9zM10,54H11V55H10zM12,54H13V55H12zM13,54H14V55H13zM14,54H15V55H14zM16,54H17V55H16zM17,54H18V55H17zM18,54H19V55H18zM19,54H20V55H19zM20,54H21V55H20zM22,54H23V55H22zM23,54H24V55H23zM24,54H25V55H24zM27,54H28V55H27zM32,54H33V55H32zM33,54H34V55H33zM35,54H36V55H35zM41,54H42V55H41zM42,54H43V55H42zM44,54H45V55H44zM46,54H47V55H46zM47,54H48V55H47zM49,54H50V55H49zM51,54H52V55H51zM54,54H55V55H54zM56,54H57V55H56zM61,54H62V55H61zM62,54H63V55H62zM4,55H5V56H4zM5,55H6V56H5zM6,55H7V56H6zM8,55H9V56H8zM11,55H12V56H11zM14,55H15V56H14zM18,55H19V56H18zM19,55H20V56H19zM21,55H22V56H21zM24,55H25V56H24zM25,55H26V56H25zM27,55H28V56H27zM31,55H32V56H31zM33,55H34V56H33zM34,55H35V56H34zM37,55H38V56H37zM38,55H39V56H38zM41,55H42V56H41zM42,55H43V56H42zM43,55H44V56H43zM44,55H45V56H44zM45,55H46V56H45zM46,55H47V56H46zM48,55H49V56H48zM49,55H50V56H49zM55,55H56V56H55zM56,55H57V56H56zM63,55H64V56H63zM4,56H5V57H4zM5,56H6V57H5zM6,56H7V57H6zM7,56H8V57H7zM10,56H11V57H10zM11,56H12V57H11zM13,56H14V57H13zM15,56H16V57H15zM16,56H17V57H16zM20,56H21V57H20zM23,56H24V57H23zM26,56H27V57H26zM28,56H29V57H28zM30,56H31V57H30zM31,56H32V57H31zM32,56H33V57H32zM33,56H34V57H33zM34,56H35V57H34zM35,56H36V57H35zM36,56H37V57H36zM37,56H38V57H37zM41,56H42V57H41zM42,56H43V57H42zM46,56H47V57H46zM47,56H48V57H47zM48,56H49V57H48zM50,56H51V57H50zM53,56H54V57H53zM54,56H55V57H54zM56,56H57V57H56zM57,56H58V57H57zM58,56H59V57H58zM59,56H60V57H59zM60,56H61V57H60zM62,56H63V57H62zM63,56H64V57H63zM12,57H13V58H12zM15,57H16V58H15zM16,57H17V58H16zM17,57H18V58H17zM23,57H24V58H23zM24,57H25V58H24zM30,57H31V58H30zM32,57H33V58H32zM36,57H37V58H36zM37,57H38V58H37zM38,57H39V58H38zM39,57H40V58H39zM43,57H44V58H43zM44,57H45V58H44zM45,57H46V58H45zM48,57H49V58H48zM49,57H50V58H49zM50,57H51V58H50zM51,57H52V58H51zM52,57H53V58H52zM56,57H57V58H56zM60,57H61V58H60zM61,57H62V58H61zM62,57H63V58H62zM63,57H64V58H63zM64,57H65V58H64zM4,58H5V59H4zM5,58H6V59H5zM6,58H7V59H6zM7,58H8V59H7zM8,58H9V59H8zM9,58H10V59H9zM10,58H11V59H10zM12,58H13V59H12zM13,58H14V59H13zM14,58H15V59H14zM18,58H19V59H18zM19,58H20V59H19zM20,58H21V59H20zM22,58H23V59H22zM23,58H24V59H23zM24,58H25V59H24zM26,58H27V59H26zM27,58H28V59H27zM28,58H29V59H28zM30,58H31V59H30zM32,58H33V59H32zM34,58H35V59H34zM36,58H37V59H36zM37,58H38V59H37zM38,58H39V59H38zM39,58H40V59H39zM40,58H41V59H40zM41,58H42V59H41zM42,58H43V59H42zM43,58H44V59H43zM44,58H45V59H44zM49,58H50V59H49zM50,58H51V59H50zM52,58H53V59H52zM54,58H55V59H54zM56,58H57V59H56zM58,58H59V59H58zM60,58H61V59H60zM63,58H64V59H63zM64,58H65V59H64zM4,59H5V60H4zM10,59H11V60H10zM12,59H13V60H12zM14,59H15V60H14zM20,59H21V60H20zM22,59H23V60H22zM23,59H24V60H23zM24,59H25V60H24zM27,59H28V60H27zM28,59H29V60H28zM31,59H32V60H31zM32,59H33V60H32zM36,59H37V60H36zM40,59H41V60H40zM42,59H43V60H42zM46,59H47V60H46zM50,59H51V60H50zM51,59H52V60H51zM54,59H55V60H54zM55,59H56V60H55zM56,59H57V60H56zM60,59H61V60H60zM61,59H62V60H61zM4,60H5V61H4zM6,60H7V61H6zM7,60H8V61H7zM8,60H9V61H8zM10,60H11V61H10zM14,60H15V61H14zM17,60H18V61H17zM18,60H19V61H18zM19,60H20V61H19zM21,60H22V61H21zM23,60H24V61H23zM24,60H25V61H24zM26,60H27V61H26zM27,60H28V61H27zM28,60H29V61H28zM32,60H33V61H32zM33,60H34V61H33zM34,60H35V61H34zM35,60H36V61H35zM36,60H37V61H36zM37,60H38V61H37zM38,60H39V61H38zM39,60H40V61H39zM41,60H42V61H41zM43,60H44V61H43zM44,60H45V61H44zM45,60H46V61H45zM50,60H51V61H50zM51,60H52V61H51zM55,60H56V61H55zM56,60H57V61H56zM57,60H58V61H57zM58,60H59V61H58zM59,60H60V61H59zM60,60H61V61H60zM62,60H63V61H62zM63,60H64V61H63zM4,61H5V62H4zM6,61H7V62H6zM7,61H8V62H7zM8,61H9V62H8zM10,61H11V62H10zM12,61H13V62H12zM13,61H14V62H13zM15,61H16V62H15zM17,61H18V62H17zM20,61H21V62H20zM22,61H23V62H22zM24,61H25V62H24zM25,61H26V62H25zM26,61H27V62H26zM27,61H28V62H27zM28,61H29V62H28zM31,61H32V62H31zM32,61H33V62H32zM34,61H35V62H34zM35,61H36V62H35zM39,61H40V62H39zM40,61H41V62H40zM41,61H42V62H41zM44,61H45V62H44zM46,61H47V62H46zM47,61H48V62H47zM52,61H53V62H52zM53,61H54V62H53zM55,61H56V62H55zM57,61H58V62H57zM58,61H59V62H58zM59,61H60V62H59zM60,61H61V62H60zM64,61H65V62H64zM4,62H5V63H4zM6,62H7V63H6zM7,62H8V63H7zM8,62H9V63H8zM10,62H11V63H10zM12,62H13V63H12zM16,62H17V63H16zM19,62H20V63H19zM20,62H21V63H20zM21,62H22V63H21zM25,62H26V63H25zM27,62H28V63H27zM30,62H31V63H30zM31,62H32V63H31zM33,62H34V63H33zM34,62H35V63H34zM35,62H36V63H35zM36,62H37V63H36zM39,62H40V63H39zM43,62H44V63H43zM44,62H45V63H44zM45,62H46V63H45zM46,62H47V63H46zM47,62H48V63H47zM49,62H50V63H49zM51,62H52V63H51zM52,62H53V63H52zM54,62H55V63H54zM55,62H56V63H55zM57,62H58V63H57zM59,62H60V63H59zM60,62H61V63H60zM63,62H64V63H63zM4,63H5V64H4zM10,63H11V64H10zM13,63H14V64H13zM14,63H15V64H14zM15,63H16V64H15zM16,63H17V64H16zM18,63H19V64H18zM20,63H21V64H20zM21,63H22V64H21zM23,63H24V64H23zM27,63H28V64H27zM31,63H32V64H31zM34,63H35V64H34zM36,63H37V64H36zM37,63H38V64H37zM39,63H40V64H39zM41,63H42V64H41zM42,63H43V64H42zM44,63H45V64H44zM46,63H47V64H46zM56,63H57V64H56zM57,63H58V64H57zM61,63H62V64H61zM62,63H63V64H62zM4,64H5V65H4zM5,64H6V65H5zM6,64H7V65H6zM7,64H8V65H7zM8,64H9V65H8zM9,64H10V65H9zM10,64H11V65H10zM12,64H13V65H12zM13,64H14V65H13zM14,64H15V65H14zM16,64H17V65H16zM18,64H19V65H18zM20,64H21V65H20zM22,64H23V65H22zM24,64H25V65H24zM26,64H27V65H26zM27,64H28V65H27zM28,64H29V65H28zM31,64H32V65H31zM34,64H35V65H34zM39,64H40V65H39zM40,64H41V65H40zM47,64H48V65H47zM51,64H52V65H51zM52,64H53V65H52zM53,64H54V65H53zM54,64H55V65H54zM55,64H56V65H55zM59,64H60V65H59zM62,64H63V65H62zM63,64H64V65H63zM64,64H65V65H64z" id="qr-path" fill="#000000" fill-opacity="1" fill-rule="nonzero" stroke="none"/></svg>